<svg viewBox="0 0 30 30" fill="#e3f7f7" color="#e3f7f7" xmlns="http://www.w3.org/2000/svg">
    <path d="M3 21V22.1197H1.88034V21H3ZM27.7917 20.2083C28.229 20.6455 28.229 21.3545 27.7917 21.7917L20.6662 28.9172C20.229 29.3545 19.52 29.3545 19.0828 28.9172C18.6455 28.48 18.6455 27.771 19.0828 27.3338L25.4166 21L19.0828 14.6662C18.6455 14.229 18.6455 13.52 19.0828 13.0828C19.52 12.6455 20.229 12.6455 20.6662 13.0828L27.7917 20.2083ZM4.11966 1L4.11966 21H1.88034L1.88034 1L4.11966 1ZM3 19.8803H27V22.1197H3V19.8803Z" fill="e3f7f7"/>
</svg>
